<svg id="visual" viewBox="0 0 900 675" width="900" height="675" xmlns="http://www.w3.org/2000/svg" xmlns:xlink="http://www.w3.org/1999/xlink" version="1.1"><path d="M0 75L13.7 76.2C27.3 77.3 54.7 79.7 82 76.3C109.3 73 136.7 64 163.8 66.3C191 68.7 218 82.3 245.2 88C272.3 93.7 299.7 91.3 327 82.3C354.3 73.3 381.7 57.7 409 61C436.3 64.3 463.7 86.7 491 90C518.3 93.3 545.7 77.7 573 66.5C600.3 55.3 627.7 48.7 654.8 45.3C682 42 709 42 736.2 47.5C763.3 53 790.7 64 818 70.7C845.3 77.3 872.7 79.7 886.3 80.8L900 82L900 0L886.3 0C872.7 0 845.3 0 818 0C790.7 0 763.3 0 736.2 0C709 0 682 0 654.8 0C627.7 0 600.3 0 573 0C545.7 0 518.3 0 491 0C463.7 0 436.3 0 409 0C381.7 0 354.3 0 327 0C299.7 0 272.3 0 245.2 0C218 0 191 0 163.8 0C136.7 0 109.3 0 82 0C54.7 0 27.3 0 13.7 0L0 0Z" fill="#6198ff"></path><path d="M0 197L13.7 199.2C27.3 201.3 54.7 205.7 82 219.2C109.3 232.7 136.7 255.3 163.8 254.3C191 253.3 218 228.7 245.2 234.3C272.3 240 299.7 276 327 282.7C354.3 289.3 381.7 266.7 409 268.8C436.3 271 463.7 298 491 314.8C518.3 331.7 545.7 338.3 573 328.2C600.3 318 627.7 291 654.8 268.5C682 246 709 228 736.2 224.7C763.3 221.3 790.7 232.7 818 260.8C845.3 289 872.7 334 886.3 356.5L900 379L900 80L886.3 78.8C872.7 77.7 845.3 75.3 818 68.7C790.7 62 763.3 51 736.2 45.5C709 40 682 40 654.8 43.3C627.7 46.7 600.3 53.3 573 64.5C545.7 75.7 518.3 91.3 491 88C463.7 84.7 436.3 62.3 409 59C381.7 55.7 354.3 71.3 327 80.3C299.7 89.3 272.3 91.7 245.2 86C218 80.3 191 66.7 163.8 64.3C136.7 62 109.3 71 82 74.3C54.7 77.7 27.3 75.3 13.7 74.2L0 73Z" fill="#3c80ff"></path><path d="M0 426L13.7 438.5C27.3 451 54.7 476 82 476C109.3 476 136.7 451 163.8 431.8C191 412.7 218 399.3 245.2 407.2C272.3 415 299.7 444 327 457.5C354.3 471 381.7 469 409 455.7C436.3 442.3 463.7 417.7 491 415.3C518.3 413 545.7 433 573 439.7C600.3 446.3 627.7 439.7 654.8 435.2C682 430.7 709 428.3 736.2 429.5C763.3 430.7 790.7 435.3 818 448.8C845.3 462.3 872.7 484.7 886.3 495.8L900 507L900 377L886.3 354.5C872.7 332 845.3 287 818 258.8C790.7 230.7 763.3 219.3 736.2 222.7C709 226 682 244 654.8 266.5C627.7 289 600.3 316 573 326.2C545.7 336.3 518.3 329.7 491 312.8C463.7 296 436.3 269 409 266.8C381.7 264.7 354.3 287.3 327 280.7C299.7 274 272.3 238 245.2 232.3C218 226.7 191 251.3 163.8 252.3C136.7 253.3 109.3 230.7 82 217.2C54.7 203.7 27.3 199.3 13.7 197.2L0 195Z" fill="#0066ff"></path><path d="M0 582L13.7 585.3C27.3 588.7 54.7 595.3 82 598.7C109.3 602 136.7 602 163.8 593C191 584 218 566 245.2 569.3C272.3 572.7 299.7 597.3 327 609.7C354.3 622 381.7 622 409 609.7C436.3 597.3 463.7 572.7 491 572.7C518.3 572.7 545.7 597.3 573 604C600.3 610.7 627.7 599.3 654.8 589.2C682 579 709 570 736.2 576.8C763.3 583.7 790.7 606.3 818 608.7C845.3 611 872.7 593 886.3 584L900 575L900 505L886.3 493.8C872.7 482.7 845.3 460.3 818 446.8C790.7 433.3 763.3 428.7 736.2 427.5C709 426.3 682 428.7 654.8 433.2C627.7 437.7 600.3 444.3 573 437.7C545.7 431 518.3 411 491 413.3C463.7 415.7 436.3 440.3 409 453.7C381.7 467 354.3 469 327 455.5C299.7 442 272.3 413 245.2 405.2C218 397.3 191 410.7 163.8 429.8C136.7 449 109.3 474 82 474C54.7 474 27.3 449 13.7 436.5L0 424Z" fill="#0059dd"></path><path d="M0 676L13.7 676C27.3 676 54.7 676 82 676C109.3 676 136.7 676 163.8 676C191 676 218 676 245.2 676C272.3 676 299.7 676 327 676C354.3 676 381.7 676 409 676C436.3 676 463.7 676 491 676C518.3 676 545.7 676 573 676C600.3 676 627.7 676 654.8 676C682 676 709 676 736.2 676C763.3 676 790.7 676 818 676C845.3 676 872.7 676 886.3 676L900 676L900 573L886.3 582C872.7 591 845.3 609 818 606.7C790.7 604.3 763.3 581.7 736.2 574.8C709 568 682 577 654.8 587.2C627.7 597.3 600.3 608.7 573 602C545.7 595.3 518.3 570.7 491 570.7C463.7 570.7 436.3 595.3 409 607.7C381.7 620 354.3 620 327 607.7C299.7 595.3 272.3 570.7 245.2 567.3C218 564 191 582 163.8 591C136.7 600 109.3 600 82 596.7C54.7 593.3 27.3 586.7 13.7 583.3L0 580Z" fill="#004cbb"></path></svg>