<svg id="visual" viewBox="0 0 2000 700" width="2000" height="700" xmlns="http://www.w3.org/2000/svg" xmlns:xlink="http://www.w3.org/1999/xlink" version="1.1"><rect x="0" y="0" width="2000" height="700" fill="#001220"></rect><path d="M0 465L22.2 445.2C44.3 425.3 88.7 385.7 133.2 356.2C177.7 326.7 222.3 307.3 266.8 317C311.3 326.7 355.7 365.3 400 391.7C444.3 418 488.7 432 533.2 419.7C577.7 407.3 622.3 368.7 666.8 363.3C711.3 358 755.7 386 800 396C844.3 406 888.7 398 933.2 401.3C977.7 404.7 1022.3 419.3 1066.8 408.5C1111.3 397.7 1155.7 361.3 1200 359.2C1244.3 357 1288.7 389 1333.2 391.3C1377.7 393.7 1422.3 366.3 1466.8 370.7C1511.3 375 1555.7 411 1600 414.2C1644.3 417.3 1688.7 387.7 1733.2 374.7C1777.7 361.7 1822.3 365.3 1866.8 369.5C1911.3 373.7 1955.7 378.3 1977.8 380.7L2000 383L2000 0L1977.8 0C1955.7 0 1911.3 0 1866.8 0C1822.3 0 1777.7 0 1733.2 0C1688.7 0 1644.3 0 1600 0C1555.7 0 1511.3 0 1466.8 0C1422.3 0 1377.7 0 1333.2 0C1288.7 0 1244.3 0 1200 0C1155.7 0 1111.3 0 1066.8 0C1022.3 0 977.7 0 933.2 0C888.7 0 844.3 0 800 0C755.7 0 711.3 0 666.8 0C622.3 0 577.7 0 533.2 0C488.7 0 444.3 0 400 0C355.7 0 311.3 0 266.8 0C222.3 0 177.7 0 133.2 0C88.7 0 44.3 0 22.2 0L0 0Z" fill="#0066ff"></path><path d="M0 281L22.2 280C44.3 279 88.7 277 133.2 291.8C177.7 306.7 222.3 338.3 266.8 337.5C311.3 336.7 355.7 303.3 400 286.8C444.3 270.3 488.7 270.7 533.2 286.2C577.7 301.7 622.3 332.3 666.8 328.5C711.3 324.7 755.7 286.3 800 280.5C844.3 274.7 888.7 301.3 933.2 306.8C977.7 312.3 1022.3 296.7 1066.8 295.8C1111.3 295 1155.7 309 1200 321C1244.3 333 1288.7 343 1333.2 338.5C1377.7 334 1422.3 315 1466.8 319.5C1511.3 324 1555.7 352 1600 364C1644.3 376 1688.7 372 1733.2 358.3C1777.7 344.7 1822.3 321.3 1866.8 309.7C1911.3 298 1955.7 298 1977.8 298L2000 298L2000 0L1977.8 0C1955.7 0 1911.3 0 1866.8 0C1822.3 0 1777.7 0 1733.2 0C1688.7 0 1644.3 0 1600 0C1555.7 0 1511.3 0 1466.8 0C1422.3 0 1377.7 0 1333.2 0C1288.7 0 1244.3 0 1200 0C1155.7 0 1111.3 0 1066.8 0C1022.3 0 977.7 0 933.2 0C888.7 0 844.3 0 800 0C755.7 0 711.3 0 666.8 0C622.3 0 577.7 0 533.2 0C488.7 0 444.3 0 400 0C355.7 0 311.3 0 266.8 0C222.3 0 177.7 0 133.2 0C88.7 0 44.3 0 22.2 0L0 0Z" fill="#007aff"></path><path d="M0 251L22.2 245C44.3 239 88.7 227 133.2 227.3C177.7 227.7 222.3 240.3 266.8 238C311.3 235.7 355.7 218.3 400 220.8C444.3 223.3 488.7 245.7 533.2 256.3C577.7 267 622.3 266 666.8 264.7C711.3 263.3 755.7 261.7 800 263.7C844.3 265.7 888.7 271.3 933.2 268C977.7 264.7 1022.3 252.3 1066.8 256C1111.3 259.7 1155.7 279.3 1200 284.3C1244.3 289.3 1288.7 279.7 1333.2 260.2C1377.7 240.7 1422.3 211.3 1466.8 198C1511.3 184.7 1555.7 187.3 1600 188C1644.3 188.7 1688.7 187.3 1733.2 198.2C1777.7 209 1822.3 232 1866.8 245.7C1911.3 259.3 1955.7 263.7 1977.8 265.8L2000 268L2000 0L1977.8 0C1955.7 0 1911.3 0 1866.8 0C1822.3 0 1777.7 0 1733.2 0C1688.7 0 1644.3 0 1600 0C1555.7 0 1511.3 0 1466.8 0C1422.3 0 1377.7 0 1333.2 0C1288.7 0 1244.3 0 1200 0C1155.7 0 1111.3 0 1066.8 0C1022.3 0 977.7 0 933.2 0C888.7 0 844.3 0 800 0C755.7 0 711.3 0 666.8 0C622.3 0 577.7 0 533.2 0C488.7 0 444.3 0 400 0C355.7 0 311.3 0 266.8 0C222.3 0 177.7 0 133.2 0C88.7 0 44.3 0 22.2 0L0 0Z" fill="#008cff"></path><path d="M0 201L22.2 186.8C44.3 172.7 88.7 144.3 133.2 142C177.7 139.7 222.3 163.3 266.8 165.3C311.3 167.3 355.7 147.7 400 134.7C444.3 121.7 488.7 115.3 533.2 114C577.7 112.7 622.3 116.3 666.8 125C711.3 133.7 755.7 147.3 800 153.5C844.3 159.7 888.7 158.3 933.2 158.8C977.7 159.3 1022.3 161.7 1066.8 153C1111.3 144.3 1155.7 124.7 1200 118.5C1244.3 112.3 1288.7 119.7 1333.2 121.5C1377.7 123.3 1422.3 119.7 1466.8 131.8C1511.3 144 1555.7 172 1600 189.2C1644.3 206.3 1688.7 212.7 1733.2 205.8C1777.7 199 1822.3 179 1866.8 160.2C1911.3 141.3 1955.7 123.7 1977.8 114.8L2000 106L2000 0L1977.8 0C1955.7 0 1911.3 0 1866.8 0C1822.3 0 1777.7 0 1733.2 0C1688.7 0 1644.3 0 1600 0C1555.7 0 1511.3 0 1466.8 0C1422.3 0 1377.7 0 1333.2 0C1288.7 0 1244.3 0 1200 0C1155.7 0 1111.3 0 1066.8 0C1022.3 0 977.7 0 933.2 0C888.7 0 844.3 0 800 0C755.7 0 711.3 0 666.8 0C622.3 0 577.7 0 533.2 0C488.7 0 444.3 0 400 0C355.7 0 311.3 0 266.8 0C222.3 0 177.7 0 133.2 0C88.7 0 44.3 0 22.2 0L0 0Z" fill="#2b9dfc"></path><path d="M0 56L22.2 65.2C44.3 74.3 88.7 92.7 133.2 103.7C177.7 114.7 222.3 118.3 266.8 113.2C311.3 108 355.7 94 400 94.5C444.3 95 488.7 110 533.2 106C577.7 102 622.3 79 666.8 66.5C711.3 54 755.7 52 800 61C844.3 70 888.7 90 933.2 92.8C977.7 95.7 1022.3 81.3 1066.8 76.7C1111.3 72 1155.7 77 1200 82.3C1244.3 87.7 1288.7 93.3 1333.2 88.5C1377.7 83.7 1422.3 68.3 1466.8 71.8C1511.3 75.3 1555.7 97.7 1600 102.2C1644.3 106.7 1688.7 93.3 1733.2 87C1777.7 80.7 1822.3 81.3 1866.8 87.2C1911.3 93 1955.7 104 1977.8 109.5L2000 115L2000 0L1977.8 0C1955.7 0 1911.3 0 1866.8 0C1822.3 0 1777.7 0 1733.2 0C1688.7 0 1644.3 0 1600 0C1555.7 0 1511.3 0 1466.8 0C1422.3 0 1377.7 0 1333.2 0C1288.7 0 1244.3 0 1200 0C1155.7 0 1111.3 0 1066.8 0C1022.3 0 977.7 0 933.2 0C888.7 0 844.3 0 800 0C755.7 0 711.3 0 666.8 0C622.3 0 577.7 0 533.2 0C488.7 0 444.3 0 400 0C355.7 0 311.3 0 266.8 0C222.3 0 177.7 0 133.2 0C88.7 0 44.3 0 22.2 0L0 0Z" fill="#4facf7"></path></svg>